<?xml version="1.0" encoding="UTF-8" standalone="no"?>
<svg
   inkscape:version="1.4.2 (ebf0e94, 2025-05-08)"
   id="svg919"
   version="1.1"
   viewBox="0 0 49.403186 52.916665"
   height="2.0833333in"
   width="1.9450073in"
   xml:space="preserve"
   sodipodi:docname="Daggerheart Foundry.svg"
   xmlns:inkscape="http://www.inkscape.org/namespaces/inkscape"
   xmlns:sodipodi="http://sodipodi.sourceforge.net/DTD/sodipodi-0.dtd"
   xmlns="http://www.w3.org/2000/svg"
   xmlns:svg="http://www.w3.org/2000/svg"
   xmlns:rdf="http://www.w3.org/1999/02/22-rdf-syntax-ns#"
   xmlns:cc="http://creativecommons.org/ns#"
   xmlns:dc="http://purl.org/dc/elements/1.1/"><defs
     id="defs913" /><sodipodi:namedview
     inkscape:window-maximized="1"
     inkscape:window-y="253"
     inkscape:window-x="2552"
     inkscape:window-height="1009"
     inkscape:window-width="1920"
     showgrid="false"
     inkscape:document-rotation="0"
     inkscape:current-layer="layer1"
     inkscape:document-units="px"
     inkscape:cy="2275"
     inkscape:cx="6663"
     inkscape:zoom="0.5"
     inkscape:pageshadow="2"
     inkscape:pageopacity="0.0"
     borderopacity="1.0"
     bordercolor="#666666"
     pagecolor="#ffffff"
     id="base"
     inkscape:showpageshadow="2"
     inkscape:pagecheckerboard="0"
     inkscape:deskcolor="#d1d1d1"><inkscape:page
       x="0"
       y="-3.53492e-13"
       width="49.403187"
       height="52.916668"
       id="page2"
       margin="0"
       bleed="0" /></sodipodi:namedview><metadata
     id="metadata916"><rdf:RDF><cc:Work
         rdf:about=""><dc:format>image/svg+xml</dc:format><dc:type
           rdf:resource="http://purl.org/dc/dcmitype/StillImage" /></cc:Work></rdf:RDF></metadata><g
     id="layer1"
     inkscape:groupmode="layer"
     inkscape:label="Layer 1"
     transform="translate(-2954.7244,-1703.0883)"><g
       id="g424"
       style="fill:#ffffff;fill-opacity:1;stroke-width:0.89438"
       transform="matrix(1.1180958,0,0,1.1180958,1318.8281,980.92923)"
       inkscape:export-filename="FoundryBorneLogoWhite.svg"
       inkscape:export-xdpi="96"
       inkscape:export-ydpi="96"><path
         id="path421"
         style="fill:#ffffff;fill-opacity:1;stroke:none;stroke-width:0.236637px;stroke-linecap:butt;stroke-linejoin:miter;stroke-opacity:1"
         d="m 1478.1906,673.36665 v 11.90625 h 3.9687 v 2.64583 l -6.9137,5.29167 h 11.2323 l 2.6009,-19.84375 z m 20.6649,0 -8.2192,19.84375 h 11.0676 l -5.2917,-5.29167 v -5.29166 l 10.882,-5.29167 v -3.96875 z"
         sodipodi:nodetypes="cccccccccccccccc" /><path
         style="fill:#ffffff;fill-opacity:1;stroke:none;stroke-width:0.236637px;stroke-linecap:butt;stroke-linejoin:miter;stroke-opacity:1"
         d="m 1476.3382,682.62693 10e-5,-7.93749 h -13.2292 c 0,5.29166 7.8572,7.93749 13.2291,7.93749 z"
         id="path422"
         sodipodi:nodetypes="cccc" /><path
         style="baseline-shift:baseline;display:inline;overflow:visible;vector-effect:none;fill:#ffffff;fill-opacity:1;stroke-width:0.89438;stroke-linecap:round;paint-order:stroke fill markers;enable-background:accumulate;stop-color:#000000"
         d="m 1498.7465,654.87512 a 2.2596359,2.2596359 0 0 0 -2.7673,1.5978 2.2596359,2.2596359 0 0 0 0.5848,2.18266 l -1.9303,5.87013 a 14.687634,14.687634 0 0 0 -7.9198,0.90281 l 0.1581,2.49393 c 7.7419,-3.61055 7.2253,3.60111 4.5517,2.88473 l -2.9491,22.40308 8.647,-20.87638 c -2.6736,-0.71638 0.4847,-7.21978 5.3843,-0.2223 l 1.3835,-2.08094 a 14.687634,14.687634 0 0 0 -6.4071,-4.74167 l 1.2643,-6.04853 a 2.2596359,2.2596359 0 0 0 1.5978,-1.59786 2.2596359,2.2596359 0 0 0 -1.5979,-2.76746 z"
         id="path423" /><path
         style="fill:#ffffff;fill-opacity:1;stroke:none;stroke-width:0.236636px;stroke-linecap:butt;stroke-linejoin:miter;stroke-opacity:1"
         d="m 1486.4514,672.34124 c -0.1886,-5.41976 -4.3166,-5.0954 -4.4306,-8.35242 -0.046,-1.31095 1.9731,-3.45254 4.3601,-0.92188 -0.08,-3.98491 2.6692,-6.84636 2.5802,-8.37909 -0.2241,-3.85762 -3.9755,-2.89642 -1.9133,-8.80494 -2.6497,1.20848 -3.8287,4.1196 -2.9977,8.70472 0.4685,2.5854 -2.517,4.47076 -3.2375,1.0545 -8.2862,7.78045 3.2627,11.60939 5.6388,16.69911 z"
         id="path424"
         sodipodi:nodetypes="cscscscc" /></g></g></svg>
